<mxfile host="app.diagrams.net" agent="Mozilla/5.0 (Macintosh; Intel Mac OS X 10_15_7) AppleWebKit/537.36 (KHTML, like Gecko) Chrome/135.0.0.0 Safari/537.36" version="26.3.0">
  <diagram name="Page-1" id="s8_XpaWB41SHUgZEd3Y0">
    <mxGraphModel dx="1236" dy="1615" grid="1" gridSize="10" guides="1" tooltips="1" connect="1" arrows="1" fold="1" page="1" pageScale="1" pageWidth="850" pageHeight="1100" math="0" shadow="0">
      <root>
        <mxCell id="0" />
        <mxCell id="1" parent="0" />
        <mxCell id="EDvvfay5RY38dGs4cPu_-1" value="Турист" style="swimlane;fontStyle=1;align=center;verticalAlign=top;childLayout=stackLayout;horizontal=1;startSize=26;horizontalStack=0;resizeParent=1;resizeParentMax=0;resizeLast=0;collapsible=1;marginBottom=0;whiteSpace=wrap;html=1;" parent="1" vertex="1">
          <mxGeometry x="190" y="140" width="310" height="180" as="geometry" />
        </mxCell>
        <mxCell id="EDvvfay5RY38dGs4cPu_-2" value="&lt;div&gt;Id : Integer&lt;/div&gt;&lt;div&gt;FIO : String&lt;/div&gt;&lt;div&gt;DateOfBirth : Date&lt;/div&gt;&lt;div&gt;Category : Enum {Любитель, Спортсмен, Тренер}&lt;/div&gt;&lt;div&gt;MaxHikeCategory : String&lt;/div&gt;" style="text;strokeColor=none;fillColor=none;align=left;verticalAlign=top;spacingLeft=4;spacingRight=4;overflow=hidden;rotatable=0;points=[[0,0.5],[1,0.5]];portConstraint=eastwest;whiteSpace=wrap;html=1;" parent="EDvvfay5RY38dGs4cPu_-1" vertex="1">
          <mxGeometry y="26" width="310" height="84" as="geometry" />
        </mxCell>
        <mxCell id="EDvvfay5RY38dGs4cPu_-3" value="" style="line;strokeWidth=1;fillColor=none;align=left;verticalAlign=middle;spacingTop=-1;spacingLeft=3;spacingRight=3;rotatable=0;labelPosition=right;points=[];portConstraint=eastwest;strokeColor=inherit;" parent="EDvvfay5RY38dGs4cPu_-1" vertex="1">
          <mxGeometry y="110" width="310" height="8" as="geometry" />
        </mxCell>
        <mxCell id="EDvvfay5RY38dGs4cPu_-4" value="&lt;div&gt;RegisterInGroup(Группа)&lt;/div&gt;&lt;div&gt;ParticipateInHike(Поход)&lt;/div&gt;&lt;div&gt;ParticipateInCompetition(Соревнование)&lt;/div&gt;" style="text;strokeColor=none;fillColor=none;align=left;verticalAlign=top;spacingLeft=4;spacingRight=4;overflow=hidden;rotatable=0;points=[[0,0.5],[1,0.5]];portConstraint=eastwest;whiteSpace=wrap;html=1;" parent="EDvvfay5RY38dGs4cPu_-1" vertex="1">
          <mxGeometry y="118" width="310" height="62" as="geometry" />
        </mxCell>
        <mxCell id="EDvvfay5RY38dGs4cPu_-5" value="Любитель" style="swimlane;fontStyle=1;align=center;verticalAlign=top;childLayout=stackLayout;horizontal=1;startSize=26;horizontalStack=0;resizeParent=1;resizeParentMax=0;resizeLast=0;collapsible=1;marginBottom=0;whiteSpace=wrap;html=1;" parent="1" vertex="1">
          <mxGeometry x="40" y="420" width="180" height="60" as="geometry" />
        </mxCell>
        <mxCell id="EDvvfay5RY38dGs4cPu_-7" value="" style="line;strokeWidth=1;fillColor=none;align=left;verticalAlign=middle;spacingTop=-1;spacingLeft=3;spacingRight=3;rotatable=0;labelPosition=right;points=[];portConstraint=eastwest;strokeColor=inherit;" parent="EDvvfay5RY38dGs4cPu_-5" vertex="1">
          <mxGeometry y="26" width="180" height="8" as="geometry" />
        </mxCell>
        <mxCell id="EDvvfay5RY38dGs4cPu_-8" value="ViewSectionSchedule()" style="text;strokeColor=none;fillColor=none;align=left;verticalAlign=top;spacingLeft=4;spacingRight=4;overflow=hidden;rotatable=0;points=[[0,0.5],[1,0.5]];portConstraint=eastwest;whiteSpace=wrap;html=1;" parent="EDvvfay5RY38dGs4cPu_-5" vertex="1">
          <mxGeometry y="34" width="180" height="26" as="geometry" />
        </mxCell>
        <mxCell id="EDvvfay5RY38dGs4cPu_-9" value="Спортсмен" style="swimlane;fontStyle=1;align=center;verticalAlign=top;childLayout=stackLayout;horizontal=1;startSize=26;horizontalStack=0;resizeParent=1;resizeParentMax=0;resizeLast=0;collapsible=1;marginBottom=0;whiteSpace=wrap;html=1;" parent="1" vertex="1">
          <mxGeometry x="260" y="420" width="220" height="34" as="geometry" />
        </mxCell>
        <mxCell id="EDvvfay5RY38dGs4cPu_-10" value="" style="line;strokeWidth=1;fillColor=none;align=left;verticalAlign=middle;spacingTop=-1;spacingLeft=3;spacingRight=3;rotatable=0;labelPosition=right;points=[];portConstraint=eastwest;strokeColor=inherit;" parent="EDvvfay5RY38dGs4cPu_-9" vertex="1">
          <mxGeometry y="26" width="220" height="8" as="geometry" />
        </mxCell>
        <mxCell id="EDvvfay5RY38dGs4cPu_-15" value="Тренер" style="swimlane;fontStyle=1;align=center;verticalAlign=top;childLayout=stackLayout;horizontal=1;startSize=26;horizontalStack=0;resizeParent=1;resizeParentMax=0;resizeLast=0;collapsible=1;marginBottom=0;whiteSpace=wrap;html=1;" parent="1" vertex="1">
          <mxGeometry x="510" y="420" width="220" height="80" as="geometry" />
        </mxCell>
        <mxCell id="EDvvfay5RY38dGs4cPu_-16" value="" style="line;strokeWidth=1;fillColor=none;align=left;verticalAlign=middle;spacingTop=-1;spacingLeft=3;spacingRight=3;rotatable=0;labelPosition=right;points=[];portConstraint=eastwest;strokeColor=inherit;" parent="EDvvfay5RY38dGs4cPu_-15" vertex="1">
          <mxGeometry y="26" width="220" height="8" as="geometry" />
        </mxCell>
        <mxCell id="EDvvfay5RY38dGs4cPu_-17" value="&lt;div&gt;TrainGroup(Группа)&lt;/div&gt;&lt;div&gt;ApplyForCompetition(Соревнование)&lt;/div&gt;" style="text;strokeColor=none;fillColor=none;align=left;verticalAlign=top;spacingLeft=4;spacingRight=4;overflow=hidden;rotatable=0;points=[[0,0.5],[1,0.5]];portConstraint=eastwest;whiteSpace=wrap;html=1;" parent="EDvvfay5RY38dGs4cPu_-15" vertex="1">
          <mxGeometry y="34" width="220" height="46" as="geometry" />
        </mxCell>
        <mxCell id="EDvvfay5RY38dGs4cPu_-18" value="Секция" style="swimlane;fontStyle=1;align=center;verticalAlign=top;childLayout=stackLayout;horizontal=1;startSize=26;horizontalStack=0;resizeParent=1;resizeParentMax=0;resizeLast=0;collapsible=1;marginBottom=0;whiteSpace=wrap;html=1;" parent="1" vertex="1">
          <mxGeometry x="840" y="170" width="230" height="130" as="geometry" />
        </mxCell>
        <mxCell id="EDvvfay5RY38dGs4cPu_-19" value="&lt;div&gt;Id : Integer&lt;/div&gt;&lt;div&gt;&lt;span style=&quot;background-color: transparent; color: light-dark(rgb(0, 0, 0), rgb(255, 255, 255));&quot;&gt;Name : String&lt;/span&gt;&lt;/div&gt;&lt;div&gt;&lt;span style=&quot;background-color: transparent; color: light-dark(rgb(0, 0, 0), rgb(255, 255, 255));&quot;&gt;Description : String&lt;/span&gt;&lt;/div&gt;" style="text;strokeColor=none;fillColor=none;align=left;verticalAlign=top;spacingLeft=4;spacingRight=4;overflow=hidden;rotatable=0;points=[[0,0.5],[1,0.5]];portConstraint=eastwest;whiteSpace=wrap;html=1;" parent="EDvvfay5RY38dGs4cPu_-18" vertex="1">
          <mxGeometry y="26" width="230" height="54" as="geometry" />
        </mxCell>
        <mxCell id="EDvvfay5RY38dGs4cPu_-20" value="" style="line;strokeWidth=1;fillColor=none;align=left;verticalAlign=middle;spacingTop=-1;spacingLeft=3;spacingRight=3;rotatable=0;labelPosition=right;points=[];portConstraint=eastwest;strokeColor=inherit;" parent="EDvvfay5RY38dGs4cPu_-18" vertex="1">
          <mxGeometry y="80" width="230" height="8" as="geometry" />
        </mxCell>
        <mxCell id="EDvvfay5RY38dGs4cPu_-21" value="&lt;div&gt;CreateGroup(Название, Тип занятий)&lt;/div&gt;&lt;div&gt;&lt;span style=&quot;background-color: transparent; color: light-dark(rgb(0, 0, 0), rgb(255, 255, 255));&quot;&gt;AssignTrainerToGroup(Тренер, Группа)&lt;/span&gt;&lt;/div&gt;" style="text;strokeColor=none;fillColor=none;align=left;verticalAlign=top;spacingLeft=4;spacingRight=4;overflow=hidden;rotatable=0;points=[[0,0.5],[1,0.5]];portConstraint=eastwest;whiteSpace=wrap;html=1;" parent="EDvvfay5RY38dGs4cPu_-18" vertex="1">
          <mxGeometry y="88" width="230" height="42" as="geometry" />
        </mxCell>
        <mxCell id="EDvvfay5RY38dGs4cPu_-22" value="Группа" style="swimlane;fontStyle=1;align=center;verticalAlign=top;childLayout=stackLayout;horizontal=1;startSize=26;horizontalStack=0;resizeParent=1;resizeParentMax=0;resizeLast=0;collapsible=1;marginBottom=0;whiteSpace=wrap;html=1;" parent="1" vertex="1">
          <mxGeometry x="550" y="170" width="230" height="130" as="geometry" />
        </mxCell>
        <mxCell id="EDvvfay5RY38dGs4cPu_-23" value="&lt;div&gt;Id : Integer&lt;/div&gt;&lt;div&gt;&lt;span style=&quot;background-color: transparent; color: light-dark(rgb(0, 0, 0), rgb(255, 255, 255));&quot;&gt;Name : String&lt;/span&gt;&lt;/div&gt;&lt;div&gt;&lt;span style=&quot;background-color: transparent; color: light-dark(rgb(0, 0, 0), rgb(255, 255, 255));&quot;&gt;ActivityType : String&lt;/span&gt;&lt;/div&gt;" style="text;strokeColor=none;fillColor=none;align=left;verticalAlign=top;spacingLeft=4;spacingRight=4;overflow=hidden;rotatable=0;points=[[0,0.5],[1,0.5]];portConstraint=eastwest;whiteSpace=wrap;html=1;" parent="EDvvfay5RY38dGs4cPu_-22" vertex="1">
          <mxGeometry y="26" width="230" height="54" as="geometry" />
        </mxCell>
        <mxCell id="EDvvfay5RY38dGs4cPu_-24" value="" style="line;strokeWidth=1;fillColor=none;align=left;verticalAlign=middle;spacingTop=-1;spacingLeft=3;spacingRight=3;rotatable=0;labelPosition=right;points=[];portConstraint=eastwest;strokeColor=inherit;" parent="EDvvfay5RY38dGs4cPu_-22" vertex="1">
          <mxGeometry y="80" width="230" height="8" as="geometry" />
        </mxCell>
        <mxCell id="EDvvfay5RY38dGs4cPu_-25" value="&lt;div&gt;AddTourist(Турист)&lt;/div&gt;&lt;div&gt;&lt;span style=&quot;background-color: transparent; color: light-dark(rgb(0, 0, 0), rgb(255, 255, 255));&quot;&gt;RemoveTourist(Турист)&lt;/span&gt;&lt;/div&gt;" style="text;strokeColor=none;fillColor=none;align=left;verticalAlign=top;spacingLeft=4;spacingRight=4;overflow=hidden;rotatable=0;points=[[0,0.5],[1,0.5]];portConstraint=eastwest;whiteSpace=wrap;html=1;" parent="EDvvfay5RY38dGs4cPu_-22" vertex="1">
          <mxGeometry y="88" width="230" height="42" as="geometry" />
        </mxCell>
        <mxCell id="EDvvfay5RY38dGs4cPu_-26" value="Тренировка" style="swimlane;fontStyle=1;align=center;verticalAlign=top;childLayout=stackLayout;horizontal=1;startSize=26;horizontalStack=0;resizeParent=1;resizeParentMax=0;resizeLast=0;collapsible=1;marginBottom=0;whiteSpace=wrap;html=1;" parent="1" vertex="1">
          <mxGeometry x="910" y="360" width="230" height="140" as="geometry" />
        </mxCell>
        <mxCell id="EDvvfay5RY38dGs4cPu_-27" value="&lt;div&gt;Id : Integer&lt;/div&gt;&lt;div&gt;&lt;span style=&quot;background-color: transparent; color: light-dark(rgb(0, 0, 0), rgb(255, 255, 255));&quot;&gt;Date : Date&lt;/span&gt;&lt;/div&gt;&lt;div&gt;&lt;span style=&quot;background-color: transparent; color: light-dark(rgb(0, 0, 0), rgb(255, 255, 255));&quot;&gt;Time : Time&lt;/span&gt;&lt;/div&gt;&lt;div&gt;&lt;span style=&quot;background-color: transparent; color: light-dark(rgb(0, 0, 0), rgb(255, 255, 255));&quot;&gt;Location : String&lt;/span&gt;&lt;/div&gt;" style="text;strokeColor=none;fillColor=none;align=left;verticalAlign=top;spacingLeft=4;spacingRight=4;overflow=hidden;rotatable=0;points=[[0,0.5],[1,0.5]];portConstraint=eastwest;whiteSpace=wrap;html=1;" parent="EDvvfay5RY38dGs4cPu_-26" vertex="1">
          <mxGeometry y="26" width="230" height="64" as="geometry" />
        </mxCell>
        <mxCell id="EDvvfay5RY38dGs4cPu_-28" value="" style="line;strokeWidth=1;fillColor=none;align=left;verticalAlign=middle;spacingTop=-1;spacingLeft=3;spacingRight=3;rotatable=0;labelPosition=right;points=[];portConstraint=eastwest;strokeColor=inherit;" parent="EDvvfay5RY38dGs4cPu_-26" vertex="1">
          <mxGeometry y="90" width="230" height="8" as="geometry" />
        </mxCell>
        <mxCell id="EDvvfay5RY38dGs4cPu_-29" value="&lt;div&gt;RegisterAttendance(Турист)&lt;/div&gt;&lt;div&gt;&lt;span style=&quot;background-color: transparent; color: light-dark(rgb(0, 0, 0), rgb(255, 255, 255));&quot;&gt;GetAttendanceList()&lt;/span&gt;&lt;/div&gt;" style="text;strokeColor=none;fillColor=none;align=left;verticalAlign=top;spacingLeft=4;spacingRight=4;overflow=hidden;rotatable=0;points=[[0,0.5],[1,0.5]];portConstraint=eastwest;whiteSpace=wrap;html=1;" parent="EDvvfay5RY38dGs4cPu_-26" vertex="1">
          <mxGeometry y="98" width="230" height="42" as="geometry" />
        </mxCell>
        <mxCell id="EDvvfay5RY38dGs4cPu_-30" value="Руководитель Секции" style="swimlane;fontStyle=1;align=center;verticalAlign=top;childLayout=stackLayout;horizontal=1;startSize=26;horizontalStack=0;resizeParent=1;resizeParentMax=0;resizeLast=0;collapsible=1;marginBottom=0;whiteSpace=wrap;html=1;" parent="1" vertex="1">
          <mxGeometry x="760" y="540" width="230" height="130" as="geometry" />
        </mxCell>
        <mxCell id="EDvvfay5RY38dGs4cPu_-31" value="&lt;div&gt;Id : Integer&lt;/div&gt;&lt;div&gt;&lt;span style=&quot;background-color: transparent; color: light-dark(rgb(0, 0, 0), rgb(255, 255, 255));&quot;&gt;FIO : String&lt;/span&gt;&lt;/div&gt;&lt;div&gt;&lt;span style=&quot;background-color: transparent; color: light-dark(rgb(0, 0, 0), rgb(255, 255, 255));&quot;&gt;ContactInfo : String&lt;/span&gt;&lt;/div&gt;" style="text;strokeColor=none;fillColor=none;align=left;verticalAlign=top;spacingLeft=4;spacingRight=4;overflow=hidden;rotatable=0;points=[[0,0.5],[1,0.5]];portConstraint=eastwest;whiteSpace=wrap;html=1;" parent="EDvvfay5RY38dGs4cPu_-30" vertex="1">
          <mxGeometry y="26" width="230" height="54" as="geometry" />
        </mxCell>
        <mxCell id="EDvvfay5RY38dGs4cPu_-32" value="" style="line;strokeWidth=1;fillColor=none;align=left;verticalAlign=middle;spacingTop=-1;spacingLeft=3;spacingRight=3;rotatable=0;labelPosition=right;points=[];portConstraint=eastwest;strokeColor=inherit;" parent="EDvvfay5RY38dGs4cPu_-30" vertex="1">
          <mxGeometry y="80" width="230" height="8" as="geometry" />
        </mxCell>
        <mxCell id="EDvvfay5RY38dGs4cPu_-33" value="&lt;div&gt;DistributeLoad()&lt;/div&gt;&lt;div&gt;&lt;span style=&quot;background-color: transparent; color: light-dark(rgb(0, 0, 0), rgb(255, 255, 255));&quot;&gt;CollectAttendanceReports()&lt;/span&gt;&lt;/div&gt;" style="text;strokeColor=none;fillColor=none;align=left;verticalAlign=top;spacingLeft=4;spacingRight=4;overflow=hidden;rotatable=0;points=[[0,0.5],[1,0.5]];portConstraint=eastwest;whiteSpace=wrap;html=1;" parent="EDvvfay5RY38dGs4cPu_-30" vertex="1">
          <mxGeometry y="88" width="230" height="42" as="geometry" />
        </mxCell>
        <mxCell id="EDvvfay5RY38dGs4cPu_-34" value="Поход" style="swimlane;fontStyle=1;align=center;verticalAlign=top;childLayout=stackLayout;horizontal=1;startSize=26;horizontalStack=0;resizeParent=1;resizeParentMax=0;resizeLast=0;collapsible=1;marginBottom=0;whiteSpace=wrap;html=1;" parent="1" vertex="1">
          <mxGeometry x="40" y="570" width="310" height="160" as="geometry" />
        </mxCell>
        <mxCell id="EDvvfay5RY38dGs4cPu_-35" value="&lt;div&gt;Id : Integer&lt;/div&gt;&lt;div&gt;&lt;span style=&quot;background-color: transparent; color: light-dark(rgb(0, 0, 0), rgb(255, 255, 255));&quot;&gt;RouteId : Integer&lt;/span&gt;&lt;/div&gt;&lt;div&gt;&lt;span style=&quot;background-color: transparent; color: light-dark(rgb(0, 0, 0), rgb(255, 255, 255));&quot;&gt;DifficultyCategory : String&lt;/span&gt;&lt;/div&gt;&lt;div&gt;&lt;span style=&quot;background-color: transparent; color: light-dark(rgb(0, 0, 0), rgb(255, 255, 255));&quot;&gt;Type : Enum {Пеший, Конный, Водный, Горный}&lt;/span&gt;&lt;/div&gt;&lt;div&gt;&lt;span style=&quot;background-color: transparent; color: light-dark(rgb(0, 0, 0), rgb(255, 255, 255));&quot;&gt;DaysCount : Integer&lt;/span&gt;&lt;/div&gt;" style="text;strokeColor=none;fillColor=none;align=left;verticalAlign=top;spacingLeft=4;spacingRight=4;overflow=hidden;rotatable=0;points=[[0,0.5],[1,0.5]];portConstraint=eastwest;whiteSpace=wrap;html=1;" parent="EDvvfay5RY38dGs4cPu_-34" vertex="1">
          <mxGeometry y="26" width="310" height="84" as="geometry" />
        </mxCell>
        <mxCell id="EDvvfay5RY38dGs4cPu_-36" value="" style="line;strokeWidth=1;fillColor=none;align=left;verticalAlign=middle;spacingTop=-1;spacingLeft=3;spacingRight=3;rotatable=0;labelPosition=right;points=[];portConstraint=eastwest;strokeColor=inherit;" parent="EDvvfay5RY38dGs4cPu_-34" vertex="1">
          <mxGeometry y="110" width="310" height="8" as="geometry" />
        </mxCell>
        <mxCell id="EDvvfay5RY38dGs4cPu_-37" value="&lt;div&gt;AddParticipant(Турист)&lt;/div&gt;&lt;div&gt;&lt;span style=&quot;background-color: transparent; color: light-dark(rgb(0, 0, 0), rgb(255, 255, 255));&quot;&gt;RemoveParticipant(Турист)&lt;/span&gt;&lt;/div&gt;" style="text;strokeColor=none;fillColor=none;align=left;verticalAlign=top;spacingLeft=4;spacingRight=4;overflow=hidden;rotatable=0;points=[[0,0.5],[1,0.5]];portConstraint=eastwest;whiteSpace=wrap;html=1;" parent="EDvvfay5RY38dGs4cPu_-34" vertex="1">
          <mxGeometry y="118" width="310" height="42" as="geometry" />
        </mxCell>
        <mxCell id="EDvvfay5RY38dGs4cPu_-38" value="Соревнование" style="swimlane;fontStyle=1;align=center;verticalAlign=top;childLayout=stackLayout;horizontal=1;startSize=26;horizontalStack=0;resizeParent=1;resizeParentMax=0;resizeLast=0;collapsible=1;marginBottom=0;whiteSpace=wrap;html=1;" parent="1" vertex="1">
          <mxGeometry x="550" y="680" width="170" height="150" as="geometry" />
        </mxCell>
        <mxCell id="EDvvfay5RY38dGs4cPu_-39" value="&lt;div&gt;Id : Integer&lt;/div&gt;&lt;div&gt;&lt;span style=&quot;background-color: transparent; color: light-dark(rgb(0, 0, 0), rgb(255, 255, 255));&quot;&gt;Name : String&lt;/span&gt;&lt;/div&gt;&lt;div&gt;&lt;span style=&quot;background-color: transparent; color: light-dark(rgb(0, 0, 0), rgb(255, 255, 255));&quot;&gt;Date : Date&lt;/span&gt;&lt;/div&gt;&lt;div&gt;&lt;span style=&quot;background-color: transparent; color: light-dark(rgb(0, 0, 0), rgb(255, 255, 255));&quot;&gt;Location : String&lt;/span&gt;&lt;/div&gt;" style="text;strokeColor=none;fillColor=none;align=left;verticalAlign=top;spacingLeft=4;spacingRight=4;overflow=hidden;rotatable=0;points=[[0,0.5],[1,0.5]];portConstraint=eastwest;whiteSpace=wrap;html=1;" parent="EDvvfay5RY38dGs4cPu_-38" vertex="1">
          <mxGeometry y="26" width="170" height="74" as="geometry" />
        </mxCell>
        <mxCell id="EDvvfay5RY38dGs4cPu_-40" value="" style="line;strokeWidth=1;fillColor=none;align=left;verticalAlign=middle;spacingTop=-1;spacingLeft=3;spacingRight=3;rotatable=0;labelPosition=right;points=[];portConstraint=eastwest;strokeColor=inherit;" parent="EDvvfay5RY38dGs4cPu_-38" vertex="1">
          <mxGeometry y="100" width="170" height="8" as="geometry" />
        </mxCell>
        <mxCell id="EDvvfay5RY38dGs4cPu_-41" value="&lt;div&gt;AddParticipant(Турист)&lt;/div&gt;&lt;div&gt;&lt;span style=&quot;background-color: transparent; color: light-dark(rgb(0, 0, 0), rgb(255, 255, 255));&quot;&gt;RemoveParticipant(Турист)&lt;/span&gt;&lt;/div&gt;" style="text;strokeColor=none;fillColor=none;align=left;verticalAlign=top;spacingLeft=4;spacingRight=4;overflow=hidden;rotatable=0;points=[[0,0.5],[1,0.5]];portConstraint=eastwest;whiteSpace=wrap;html=1;" parent="EDvvfay5RY38dGs4cPu_-38" vertex="1">
          <mxGeometry y="108" width="170" height="42" as="geometry" />
        </mxCell>
        <mxCell id="EDvvfay5RY38dGs4cPu_-43" value="Extends" style="endArrow=block;endSize=16;endFill=0;html=1;rounded=0;exitX=0.5;exitY=0;exitDx=0;exitDy=0;entryX=0.206;entryY=1.015;entryDx=0;entryDy=0;entryPerimeter=0;" parent="1" source="EDvvfay5RY38dGs4cPu_-5" target="EDvvfay5RY38dGs4cPu_-4" edge="1">
          <mxGeometry width="160" relative="1" as="geometry">
            <mxPoint x="390" y="390" as="sourcePoint" />
            <mxPoint x="550" y="390" as="targetPoint" />
          </mxGeometry>
        </mxCell>
        <mxCell id="EDvvfay5RY38dGs4cPu_-44" value="Extends" style="endArrow=block;endSize=16;endFill=0;html=1;rounded=0;exitX=0.5;exitY=0;exitDx=0;exitDy=0;" parent="1" source="EDvvfay5RY38dGs4cPu_-9" target="EDvvfay5RY38dGs4cPu_-4" edge="1">
          <mxGeometry width="160" relative="1" as="geometry">
            <mxPoint x="200" y="430" as="sourcePoint" />
            <mxPoint x="354" y="391" as="targetPoint" />
          </mxGeometry>
        </mxCell>
        <mxCell id="EDvvfay5RY38dGs4cPu_-45" value="Extends" style="endArrow=block;endSize=16;endFill=0;html=1;rounded=0;exitX=0.5;exitY=0;exitDx=0;exitDy=0;entryX=0.83;entryY=0.988;entryDx=0;entryDy=0;entryPerimeter=0;" parent="1" source="EDvvfay5RY38dGs4cPu_-15" target="EDvvfay5RY38dGs4cPu_-4" edge="1">
          <mxGeometry width="160" relative="1" as="geometry">
            <mxPoint x="380" y="430" as="sourcePoint" />
            <mxPoint x="372" y="390" as="targetPoint" />
          </mxGeometry>
        </mxCell>
        <mxCell id="EDvvfay5RY38dGs4cPu_-46" value="" style="endArrow=none;html=1;edgeStyle=orthogonalEdgeStyle;rounded=0;" parent="1" source="EDvvfay5RY38dGs4cPu_-1" edge="1" target="EDvvfay5RY38dGs4cPu_-22">
          <mxGeometry relative="1" as="geometry">
            <mxPoint x="660" y="520" as="sourcePoint" />
            <mxPoint x="713" y="229" as="targetPoint" />
            <Array as="points">
              <mxPoint x="540" y="240" />
              <mxPoint x="540" y="240" />
            </Array>
          </mxGeometry>
        </mxCell>
        <mxCell id="EDvvfay5RY38dGs4cPu_-47" value="0..*" style="edgeLabel;resizable=0;html=1;align=left;verticalAlign=bottom;" parent="EDvvfay5RY38dGs4cPu_-46" connectable="0" vertex="1">
          <mxGeometry x="-1" relative="1" as="geometry">
            <mxPoint x="8" as="offset" />
          </mxGeometry>
        </mxCell>
        <mxCell id="EDvvfay5RY38dGs4cPu_-48" value="1..*" style="edgeLabel;resizable=0;html=1;align=right;verticalAlign=bottom;" parent="EDvvfay5RY38dGs4cPu_-46" connectable="0" vertex="1">
          <mxGeometry x="1" relative="1" as="geometry">
            <mxPoint as="offset" />
          </mxGeometry>
        </mxCell>
        <mxCell id="EDvvfay5RY38dGs4cPu_-49" value="Маршрут" style="swimlane;fontStyle=1;align=center;verticalAlign=top;childLayout=stackLayout;horizontal=1;startSize=26;horizontalStack=0;resizeParent=1;resizeParentMax=0;resizeLast=0;collapsible=1;marginBottom=0;whiteSpace=wrap;html=1;" parent="1" vertex="1">
          <mxGeometry x="130" y="810" width="110" height="70" as="geometry" />
        </mxCell>
        <mxCell id="EDvvfay5RY38dGs4cPu_-50" value="&lt;div&gt;Id : Integer&lt;/div&gt;&lt;div&gt;Location : String&lt;/div&gt;" style="text;strokeColor=none;fillColor=none;align=left;verticalAlign=top;spacingLeft=4;spacingRight=4;overflow=hidden;rotatable=0;points=[[0,0.5],[1,0.5]];portConstraint=eastwest;whiteSpace=wrap;html=1;" parent="EDvvfay5RY38dGs4cPu_-49" vertex="1">
          <mxGeometry y="26" width="110" height="44" as="geometry" />
        </mxCell>
        <mxCell id="EDvvfay5RY38dGs4cPu_-53" value="" style="endArrow=diamondThin;endFill=0;endSize=24;html=1;rounded=0;" parent="1" source="EDvvfay5RY38dGs4cPu_-22" target="EDvvfay5RY38dGs4cPu_-18" edge="1">
          <mxGeometry width="160" relative="1" as="geometry">
            <mxPoint x="800" y="530" as="sourcePoint" />
            <mxPoint x="960" y="530" as="targetPoint" />
          </mxGeometry>
        </mxCell>
        <mxCell id="EDvvfay5RY38dGs4cPu_-54" value="0..*" style="edgeLabel;html=1;align=center;verticalAlign=middle;resizable=0;points=[];" parent="EDvvfay5RY38dGs4cPu_-53" vertex="1" connectable="0">
          <mxGeometry x="-0.8486" relative="1" as="geometry">
            <mxPoint x="10" y="-17" as="offset" />
          </mxGeometry>
        </mxCell>
        <mxCell id="EDvvfay5RY38dGs4cPu_-55" value="1" style="edgeLabel;html=1;align=center;verticalAlign=middle;resizable=0;points=[];" parent="EDvvfay5RY38dGs4cPu_-53" vertex="1" connectable="0">
          <mxGeometry x="0.4506" relative="1" as="geometry">
            <mxPoint x="7" y="-16" as="offset" />
          </mxGeometry>
        </mxCell>
        <mxCell id="EDvvfay5RY38dGs4cPu_-56" value="" style="endArrow=diamondThin;endFill=0;endSize=24;html=1;rounded=0;entryX=0.171;entryY=1.025;entryDx=0;entryDy=0;entryPerimeter=0;" parent="1" target="EDvvfay5RY38dGs4cPu_-21" edge="1">
          <mxGeometry width="160" relative="1" as="geometry">
            <mxPoint x="879" y="540" as="sourcePoint" />
            <mxPoint x="1170" y="110" as="targetPoint" />
          </mxGeometry>
        </mxCell>
        <mxCell id="EDvvfay5RY38dGs4cPu_-57" value="1" style="edgeLabel;html=1;align=center;verticalAlign=middle;resizable=0;points=[];" parent="EDvvfay5RY38dGs4cPu_-56" vertex="1" connectable="0">
          <mxGeometry x="0.4179" y="3" relative="1" as="geometry">
            <mxPoint x="24" y="-61" as="offset" />
          </mxGeometry>
        </mxCell>
        <mxCell id="EDvvfay5RY38dGs4cPu_-58" value="1" style="edgeLabel;html=1;align=center;verticalAlign=middle;resizable=0;points=[];" parent="EDvvfay5RY38dGs4cPu_-56" vertex="1" connectable="0">
          <mxGeometry x="-0.659" relative="1" as="geometry">
            <mxPoint x="15" y="31" as="offset" />
          </mxGeometry>
        </mxCell>
        <mxCell id="EDvvfay5RY38dGs4cPu_-59" value="" style="endArrow=none;html=1;edgeStyle=orthogonalEdgeStyle;rounded=0;" parent="1" target="EDvvfay5RY38dGs4cPu_-18" edge="1">
          <mxGeometry relative="1" as="geometry">
            <mxPoint x="730" y="470" as="sourcePoint" />
            <mxPoint x="961" y="459.44" as="targetPoint" />
            <Array as="points">
              <mxPoint x="850" y="470" />
            </Array>
          </mxGeometry>
        </mxCell>
        <mxCell id="EDvvfay5RY38dGs4cPu_-60" value="0..*" style="edgeLabel;resizable=0;html=1;align=left;verticalAlign=bottom;" parent="EDvvfay5RY38dGs4cPu_-59" connectable="0" vertex="1">
          <mxGeometry x="-1" relative="1" as="geometry">
            <mxPoint x="8" as="offset" />
          </mxGeometry>
        </mxCell>
        <mxCell id="EDvvfay5RY38dGs4cPu_-61" value="1" style="edgeLabel;resizable=0;html=1;align=right;verticalAlign=bottom;" parent="EDvvfay5RY38dGs4cPu_-59" connectable="0" vertex="1">
          <mxGeometry x="1" relative="1" as="geometry">
            <mxPoint x="-17" y="20" as="offset" />
          </mxGeometry>
        </mxCell>
        <mxCell id="EDvvfay5RY38dGs4cPu_-62" value="" style="endArrow=none;html=1;edgeStyle=orthogonalEdgeStyle;rounded=0;exitX=0.75;exitY=0;exitDx=0;exitDy=0;" parent="1" source="EDvvfay5RY38dGs4cPu_-15" target="EDvvfay5RY38dGs4cPu_-25" edge="1">
          <mxGeometry relative="1" as="geometry">
            <mxPoint x="680" y="350" as="sourcePoint" />
            <mxPoint x="891" y="350" as="targetPoint" />
            <Array as="points">
              <mxPoint x="675" y="330" />
              <mxPoint x="675" y="330" />
            </Array>
          </mxGeometry>
        </mxCell>
        <mxCell id="EDvvfay5RY38dGs4cPu_-63" value="0..1" style="edgeLabel;resizable=0;html=1;align=left;verticalAlign=bottom;" parent="EDvvfay5RY38dGs4cPu_-62" connectable="0" vertex="1">
          <mxGeometry x="-1" relative="1" as="geometry">
            <mxPoint x="8" y="-10" as="offset" />
          </mxGeometry>
        </mxCell>
        <mxCell id="EDvvfay5RY38dGs4cPu_-64" value="0..*" style="edgeLabel;resizable=0;html=1;align=right;verticalAlign=bottom;" parent="EDvvfay5RY38dGs4cPu_-62" connectable="0" vertex="1">
          <mxGeometry x="1" relative="1" as="geometry">
            <mxPoint x="25" y="25" as="offset" />
          </mxGeometry>
        </mxCell>
        <mxCell id="EDvvfay5RY38dGs4cPu_-65" value="" style="endArrow=diamondThin;endFill=0;endSize=24;html=1;rounded=0;" parent="1" source="EDvvfay5RY38dGs4cPu_-26" edge="1" target="EDvvfay5RY38dGs4cPu_-18">
          <mxGeometry width="160" relative="1" as="geometry">
            <mxPoint x="1320" y="320" as="sourcePoint" />
            <mxPoint x="1289" y="230" as="targetPoint" />
          </mxGeometry>
        </mxCell>
        <mxCell id="EDvvfay5RY38dGs4cPu_-66" value="0..*" style="edgeLabel;html=1;align=center;verticalAlign=middle;resizable=0;points=[];" parent="EDvvfay5RY38dGs4cPu_-65" vertex="1" connectable="0">
          <mxGeometry x="-0.8486" relative="1" as="geometry">
            <mxPoint x="16" y="-11" as="offset" />
          </mxGeometry>
        </mxCell>
        <mxCell id="EDvvfay5RY38dGs4cPu_-67" value="1" style="edgeLabel;html=1;align=center;verticalAlign=middle;resizable=0;points=[];" parent="EDvvfay5RY38dGs4cPu_-65" vertex="1" connectable="0">
          <mxGeometry x="0.4506" relative="1" as="geometry">
            <mxPoint x="19" y="-4" as="offset" />
          </mxGeometry>
        </mxCell>
        <mxCell id="EDvvfay5RY38dGs4cPu_-68" value="" style="endArrow=none;html=1;edgeStyle=orthogonalEdgeStyle;rounded=0;" parent="1" source="EDvvfay5RY38dGs4cPu_-1" target="EDvvfay5RY38dGs4cPu_-34" edge="1">
          <mxGeometry relative="1" as="geometry">
            <mxPoint x="220" y="50" as="sourcePoint" />
            <mxPoint x="431" y="50" as="targetPoint" />
            <Array as="points">
              <mxPoint x="280" y="360" />
              <mxPoint x="240" y="360" />
            </Array>
          </mxGeometry>
        </mxCell>
        <mxCell id="EDvvfay5RY38dGs4cPu_-69" value="5..15" style="edgeLabel;resizable=0;html=1;align=left;verticalAlign=bottom;" parent="EDvvfay5RY38dGs4cPu_-68" connectable="0" vertex="1">
          <mxGeometry x="-1" relative="1" as="geometry">
            <mxPoint x="8" y="20" as="offset" />
          </mxGeometry>
        </mxCell>
        <mxCell id="EDvvfay5RY38dGs4cPu_-70" value="&lt;span style=&quot;text-align: left;&quot;&gt;0..1&lt;/span&gt;" style="edgeLabel;resizable=0;html=1;align=right;verticalAlign=bottom;" parent="EDvvfay5RY38dGs4cPu_-68" connectable="0" vertex="1">
          <mxGeometry x="1" relative="1" as="geometry">
            <mxPoint x="25" y="-10" as="offset" />
          </mxGeometry>
        </mxCell>
        <mxCell id="EDvvfay5RY38dGs4cPu_-74" value="Extends" style="endArrow=block;endSize=16;endFill=0;html=1;rounded=0;" parent="1" target="EDvvfay5RY38dGs4cPu_-9" edge="1" source="EDvvfay5RY38dGs4cPu_-78">
          <mxGeometry width="160" relative="1" as="geometry">
            <mxPoint x="469.5999999999999" y="560" as="sourcePoint" />
            <mxPoint x="397.60000000000014" y="500.0000000000002" as="targetPoint" />
          </mxGeometry>
        </mxCell>
        <mxCell id="EDvvfay5RY38dGs4cPu_-75" value="Extends" style="endArrow=block;endSize=16;endFill=0;html=1;rounded=0;" parent="1" target="EDvvfay5RY38dGs4cPu_-15" edge="1" source="EDvvfay5RY38dGs4cPu_-78">
          <mxGeometry width="160" relative="1" as="geometry">
            <mxPoint x="512.1000000000001" y="560" as="sourcePoint" />
            <mxPoint x="371" y="340" as="targetPoint" />
          </mxGeometry>
        </mxCell>
        <mxCell id="EDvvfay5RY38dGs4cPu_-78" value="Инстpуктоp" style="swimlane;fontStyle=1;align=center;verticalAlign=top;childLayout=stackLayout;horizontal=1;startSize=26;horizontalStack=0;resizeParent=1;resizeParentMax=0;resizeLast=0;collapsible=1;marginBottom=0;whiteSpace=wrap;html=1;" parent="1" vertex="1">
          <mxGeometry x="390" y="560" width="220" height="70" as="geometry" />
        </mxCell>
        <mxCell id="EDvvfay5RY38dGs4cPu_-79" value="" style="line;strokeWidth=1;fillColor=none;align=left;verticalAlign=middle;spacingTop=-1;spacingLeft=3;spacingRight=3;rotatable=0;labelPosition=right;points=[];portConstraint=eastwest;strokeColor=inherit;" parent="EDvvfay5RY38dGs4cPu_-78" vertex="1">
          <mxGeometry y="26" width="220" height="8" as="geometry" />
        </mxCell>
        <mxCell id="EDvvfay5RY38dGs4cPu_-80" value="&lt;div&gt;LeadHike(Поход)&lt;/div&gt;" style="text;strokeColor=none;fillColor=none;align=left;verticalAlign=top;spacingLeft=4;spacingRight=4;overflow=hidden;rotatable=0;points=[[0,0.5],[1,0.5]];portConstraint=eastwest;whiteSpace=wrap;html=1;" parent="EDvvfay5RY38dGs4cPu_-78" vertex="1">
          <mxGeometry y="34" width="220" height="36" as="geometry" />
        </mxCell>
        <mxCell id="EDvvfay5RY38dGs4cPu_-81" value="" style="endArrow=none;html=1;edgeStyle=orthogonalEdgeStyle;rounded=0;" parent="1" source="EDvvfay5RY38dGs4cPu_-34" target="EDvvfay5RY38dGs4cPu_-49" edge="1">
          <mxGeometry relative="1" as="geometry">
            <mxPoint x="355" y="150" as="sourcePoint" />
            <mxPoint x="200" y="820" as="targetPoint" />
            <Array as="points">
              <mxPoint x="185" y="750" />
              <mxPoint x="185" y="750" />
            </Array>
          </mxGeometry>
        </mxCell>
        <mxCell id="EDvvfay5RY38dGs4cPu_-82" value="0..*" style="edgeLabel;resizable=0;html=1;align=left;verticalAlign=bottom;" parent="EDvvfay5RY38dGs4cPu_-81" connectable="0" vertex="1">
          <mxGeometry x="-1" relative="1" as="geometry">
            <mxPoint x="8" y="20" as="offset" />
          </mxGeometry>
        </mxCell>
        <mxCell id="EDvvfay5RY38dGs4cPu_-83" value="&lt;span style=&quot;text-align: left;&quot;&gt;1&lt;/span&gt;" style="edgeLabel;resizable=0;html=1;align=right;verticalAlign=bottom;" parent="EDvvfay5RY38dGs4cPu_-81" connectable="0" vertex="1">
          <mxGeometry x="1" relative="1" as="geometry">
            <mxPoint x="19" y="-7" as="offset" />
          </mxGeometry>
        </mxCell>
        <mxCell id="J0k2VkwXF0cSOo6YALct-1" value="" style="endArrow=none;html=1;edgeStyle=orthogonalEdgeStyle;rounded=0;" edge="1" parent="1" source="EDvvfay5RY38dGs4cPu_-34" target="EDvvfay5RY38dGs4cPu_-78">
          <mxGeometry relative="1" as="geometry">
            <mxPoint x="460" y="715" as="sourcePoint" />
            <mxPoint x="610" y="590" as="targetPoint" />
            <Array as="points">
              <mxPoint x="500" y="655" />
            </Array>
          </mxGeometry>
        </mxCell>
        <mxCell id="J0k2VkwXF0cSOo6YALct-2" value="1" style="edgeLabel;resizable=0;html=1;align=left;verticalAlign=bottom;" connectable="0" vertex="1" parent="J0k2VkwXF0cSOo6YALct-1">
          <mxGeometry x="-1" relative="1" as="geometry">
            <mxPoint x="8" y="-5" as="offset" />
          </mxGeometry>
        </mxCell>
        <mxCell id="J0k2VkwXF0cSOo6YALct-3" value="1" style="edgeLabel;resizable=0;html=1;align=right;verticalAlign=bottom;" connectable="0" vertex="1" parent="J0k2VkwXF0cSOo6YALct-1">
          <mxGeometry x="1" relative="1" as="geometry">
            <mxPoint x="17" y="18" as="offset" />
          </mxGeometry>
        </mxCell>
        <mxCell id="J0k2VkwXF0cSOo6YALct-4" value="" style="endArrow=none;html=1;edgeStyle=orthogonalEdgeStyle;rounded=0;" edge="1" parent="1" source="EDvvfay5RY38dGs4cPu_-38" target="EDvvfay5RY38dGs4cPu_-9">
          <mxGeometry relative="1" as="geometry">
            <mxPoint x="440" y="725" as="sourcePoint" />
            <mxPoint x="590" y="700" as="targetPoint" />
            <Array as="points">
              <mxPoint x="635" y="550" />
              <mxPoint x="340" y="550" />
            </Array>
          </mxGeometry>
        </mxCell>
        <mxCell id="J0k2VkwXF0cSOo6YALct-5" value="&lt;span style=&quot;text-align: right;&quot;&gt;0..*&lt;/span&gt;" style="edgeLabel;resizable=0;html=1;align=left;verticalAlign=bottom;" connectable="0" vertex="1" parent="J0k2VkwXF0cSOo6YALct-4">
          <mxGeometry x="-1" relative="1" as="geometry">
            <mxPoint x="-25" y="-10" as="offset" />
          </mxGeometry>
        </mxCell>
        <mxCell id="J0k2VkwXF0cSOo6YALct-6" value="0..*" style="edgeLabel;resizable=0;html=1;align=right;verticalAlign=bottom;" connectable="0" vertex="1" parent="J0k2VkwXF0cSOo6YALct-4">
          <mxGeometry x="1" relative="1" as="geometry">
            <mxPoint x="30" y="18" as="offset" />
          </mxGeometry>
        </mxCell>
        <mxCell id="J0k2VkwXF0cSOo6YALct-7" value="" style="endArrow=none;html=1;edgeStyle=orthogonalEdgeStyle;rounded=0;" edge="1" parent="1" source="EDvvfay5RY38dGs4cPu_-38" target="EDvvfay5RY38dGs4cPu_-15">
          <mxGeometry relative="1" as="geometry">
            <mxPoint x="720" y="670" as="sourcePoint" />
            <mxPoint x="330" y="464" as="targetPoint" />
            <Array as="points">
              <mxPoint x="660" y="590" />
              <mxPoint x="660" y="590" />
            </Array>
          </mxGeometry>
        </mxCell>
        <mxCell id="J0k2VkwXF0cSOo6YALct-8" value="&lt;span style=&quot;text-align: right;&quot;&gt;0..*&lt;/span&gt;" style="edgeLabel;resizable=0;html=1;align=left;verticalAlign=bottom;" connectable="0" vertex="1" parent="J0k2VkwXF0cSOo6YALct-7">
          <mxGeometry x="-1" relative="1" as="geometry">
            <mxPoint x="10" y="-10" as="offset" />
          </mxGeometry>
        </mxCell>
        <mxCell id="J0k2VkwXF0cSOo6YALct-9" value="0..*" style="edgeLabel;resizable=0;html=1;align=right;verticalAlign=bottom;" connectable="0" vertex="1" parent="J0k2VkwXF0cSOo6YALct-7">
          <mxGeometry x="1" relative="1" as="geometry">
            <mxPoint x="30" y="18" as="offset" />
          </mxGeometry>
        </mxCell>
      </root>
    </mxGraphModel>
  </diagram>
</mxfile>
